<svg xmlns="http://www.w3.org/2000/svg" xmlns:xlink="http://www.w3.org/1999/xlink" width="26" height="27" viewBox="0 0 26 27">
  <defs>
    <clipPath id="clip-path">
      <rect id="Rectangle_1" data-name="Rectangle 1" width="21.408" height="25.017" transform="translate(0 0)" fill="none"/>
    </clipPath>
    <clipPath id="clip-Tik_Tok">
      <rect width="26" height="27"/>
    </clipPath>
  </defs>
  <g id="Tik_Tok" data-name="Tik Tok" clip-path="url(#clip-Tik_Tok)">
    <g id="Group_3" data-name="Group 3" transform="translate(2 1)">
      <g id="Group_2" data-name="Group 2" clip-path="url(#clip-path)">
        <path id="Path_4" data-name="Path 4" d="M21.4,10.122c-.2.02-.41.03-.615.031A6.678,6.678,0,0,1,15.2,7.133V17.417a7.6,7.6,0,1,1-7.6-7.6c.159,0,.314.015.47.024v3.746a3.836,3.836,0,0,0-.47-.047,3.879,3.879,0,0,0,0,7.758,3.974,3.974,0,0,0,4.035-3.831L11.673,0h3.583a6.674,6.674,0,0,0,6.152,5.958v4.163" fill="#fff"/>
      </g>
    </g>
  </g>
</svg>
